<svg xmlns="http://www.w3.org/2000/svg" viewBox="0 0 512 512">
  <rect width="512" height="512" rx="90" fill="#2563eb"/>
  <g transform="translate(135, 115)">
    <path d="M 0 8 Q 0 0 8 0 L 168 0 L 240 72 L 240 274 Q 240 282 232 282 L 8 282 Q 0 282 0 274 Z" fill="#ffffff"/>
    <path d="M 168 0 L 240 72 L 176 72 Q 168 72 168 64 Z" fill="#bfdbfe"/>
    <rect x="36" y="138" width="168" height="13" rx="3" fill="#2563eb"/>
    <rect x="36" y="167" width="124" height="13" rx="3" fill="#60a5fa"/>
    <rect x="36" y="196" width="150" height="13" rx="3" fill="#2563eb"/>
    <g transform="translate(150, 210) rotate(35)">
      <rect x="0" y="0" width="60" height="14" rx="2" fill="#f59e0b"/>
      <polygon points="60,0 72,7 60,14" fill="#dc2626"/>
      <rect x="0" y="0" width="8" height="14" fill="#1f2937"/>
    </g>
  </g>
</svg>
